<?xml version="1.0" encoding="UTF-8" standalone="no"?>
<svg
   width="1280"
   height="320"
   version="1.1"
   id="svg359"
   sodipodi:docname="Chess_klt45.svg"
   inkscape:version="1.2.2 (1:1.2.2+202305151914+b0a8486541)"
   xml:space="preserve"
   xmlns:inkscape="http://www.inkscape.org/namespaces/inkscape"
   xmlns:sodipodi="http://sodipodi.sourceforge.net/DTD/sodipodi-0.dtd"
   xmlns:xlink="http://www.w3.org/1999/xlink"
   xmlns="http://www.w3.org/2000/svg"
   xmlns:svg="http://www.w3.org/2000/svg"><defs
     id="defs363" /><sodipodi:namedview
     id="namedview361"
     pagecolor="#ffffff"
     bordercolor="#666666"
     borderopacity="1.0"
     inkscape:showpageshadow="2"
     inkscape:pageopacity="0.0"
     inkscape:pagecheckerboard="0"
     inkscape:deskcolor="#d1d1d1"
     showgrid="false"
     inkscape:zoom="0.64286429"
     inkscape:cx="601.99331"
     inkscape:cy="217.77536"
     inkscape:window-width="1920"
     inkscape:window-height="1080"
     inkscape:window-x="0"
     inkscape:window-y="0"
     inkscape:window-maximized="1"
     inkscape:current-layer="svg359" /><g
     id="g1012"
     transform="matrix(0.26988378,0,0,0.26988378,52.727632,73.637195)"><use
       x="0"
       y="0"
       xlink:href="#g357"
       id="use981"
       transform="translate(127.38444,-92.847767)" /><g
       fill="none"
       fill-rule="evenodd"
       stroke="#000000"
       stroke-linecap="round"
       stroke-linejoin="round"
       stroke-width="1.5"
       id="g357"
       transform="matrix(14.221934,0,0,14.221934,107.13644,41.758725)"><path
         stroke-linejoin="miter"
         d="M 22.5,11.63 V 6 M 20,8 h 5"
         id="path349" /><path
         fill="#ffffff"
         stroke-linecap="butt"
         stroke-linejoin="miter"
         d="m 22.5,25 c 0,0 4.5,-7.5 3,-10.5 0,0 -1,-2.5 -3,-2.5 -2,0 -3,2.5 -3,2.5 -1.5,3 3,10.5 3,10.5"
         id="path351" /><path
         fill="#ffffff"
         d="m 12.5,37 c 5.5,3.5 14.5,3.5 20,0 v -7 c 0,0 9,-4.5 6,-10.5 -4,-6.5 -13.5,-3.5 -16,4 V 27 23.5 C 20,16 10.5,13 6.5,19.5 c -3,6 6,10.5 6,10.5 v 7"
         id="path353"
         style="display:inline" /><path
         d="m 12.5,30 c 5.5,-3 14.5,-3 20,0 m -20,3.5 c 5.5,-3 14.5,-3 20,0 m -20,3.5 c 5.5,-3 14.5,-3 20,0"
         id="path355"
         style="display:inline" /></g></g><text
     xml:space="preserve"
     style="font-style:normal;font-variant:normal;font-weight:normal;font-stretch:normal;font-size:16px;line-height:1;font-family:Lt;-inkscape-font-specification:Lt;text-align:center;text-decoration-color:#000000;text-anchor:middle;fill:#000000;stroke-width:1.00157;-inkscape-stroke:none;stop-color:#000000"
     x="278.62299"
     y="433.88736"
     id="text291"><tspan
       sodipodi:role="line"
       id="tspan289"
       x="278.62299"
       y="433.88736" /></text><g
     id="g1004"
     transform="matrix(0.26988378,0,0,0.26988378,950.34242,73.637185)"><g
       style="fill:none;fill-opacity:1;fill-rule:evenodd;stroke:#000000;stroke-width:1.5;stroke-linecap:round;stroke-linejoin:round;stroke-miterlimit:4;stroke-dasharray:none;stroke-opacity:1"
       id="g412"
       transform="matrix(14.221934,0,0,14.221934,234.52088,-51.089042)"><path
         d="M 22.5,11.63 V 6"
         style="fill:none;stroke:#000000;stroke-linejoin:miter"
         id="path6570" /><path
         d="m 22.5,25 c 0,0 4.5,-7.5 3,-10.5 0,0 -1,-2.5 -3,-2.5 -2,0 -3,2.5 -3,2.5 -1.5,3 3,10.5 3,10.5"
         style="fill:#000000;fill-opacity:1;stroke-linecap:butt;stroke-linejoin:miter"
         id="path402" /><path
         d="m 12.5,37 c 5.5,3.5 14.5,3.5 20,0 v -7 c 0,0 9,-4.5 6,-10.5 -4,-6.5 -13.5,-3.5 -16,4 V 27 23.5 C 20,16 10.5,13 6.5,19.5 c -3,6 6,10.5 6,10.5 v 7"
         style="fill:#000000;stroke:#000000"
         id="path404" /><path
         d="m 20,8 h 5"
         style="fill:none;stroke:#000000;stroke-linejoin:miter"
         id="path406" /><path
         d="m 32,29.5 c 0,0 8.5,-4 6.03,-9.65 C 34.15,14 25,18 22.5,24.5 v 2.1 -2.1 C 20,18 10.85,14 6.97,19.85 4.5,25.5 13,29.5 13,29.5"
         style="fill:none;stroke:#ffffff"
         id="path408" /><path
         d="m 12.5,30 c 5.5,-3 14.5,-3 20,0 m -20,3.5 c 5.5,-3 14.5,-3 20,0 m -20,3.5 c 5.5,-3 14.5,-3 20,0"
         style="fill:none;stroke:#ffffff"
         id="path410" /></g><use
       x="0"
       y="0"
       xlink:href="#g412"
       id="use983"
       transform="translate(-127.38444,92.84777)" /></g><text
     xml:space="preserve"
     style="font-size:165.074px;line-height:1;font-family:'LT Museum';-inkscape-font-specification:'LT Museum';text-align:center;text-decoration-color:#000000;text-anchor:middle;fill:#000000;stroke:#ffffff;stroke-width:10.5408;stroke-dasharray:none;stroke-opacity:1;paint-order:stroke markers fill;stop-color:#000000"
     x="635.51782"
     y="216.25806"
     id="text345"><tspan
       sodipodi:role="line"
       id="tspan343"
       x="635.51782"
       y="216.25806"
       style="font-style:normal;font-variant:normal;font-weight:bold;font-stretch:normal;font-family:'LT Museum';-inkscape-font-specification:'LT Museum Bold';stroke:#ffffff;stroke-width:10.5408;stroke-dasharray:none;stroke-opacity:1;paint-order:stroke markers fill">TwoChess</tspan></text></svg>
